<svg width="519" height="112" viewBox="0 0 519 112" fill="none" xmlns="http://www.w3.org/2000/svg">
<path d="M161.575 10.6567H134.937C127.09 4.02232 116.949 0 105.86 0H45.0272C20.1547 0 0 20.1276 0 44.9667C0 69.8057 20.1547 89.9333 45.0272 89.9333H105.86C130.733 89.9333 150.888 69.8057 150.888 44.9667C150.888 36.8098 148.673 29.1819 144.886 22.5955L161.591 10.6728L161.575 10.6567Z" fill="#FEE500"/>
<path d="M111.444 52.931C115.849 52.931 119.419 49.3651 119.419 44.9665C119.419 40.5678 115.849 37.002 111.444 37.002C107.039 37.002 103.469 40.5678 103.469 44.9665C103.469 49.3651 107.039 52.931 111.444 52.931Z" fill="#10218B"/>
<path d="M75.4362 52.931C79.8408 52.931 83.4114 49.3651 83.4114 44.9665C83.4114 40.5678 79.8408 37.002 75.4362 37.002C71.0316 37.002 67.4609 40.5678 67.4609 44.9665C67.4609 49.3651 71.0316 52.931 75.4362 52.931Z" fill="#10218B"/>
<path d="M39.444 52.931C43.8486 52.931 47.4192 49.3651 47.4192 44.9665C47.4192 40.5678 43.8486 37.002 39.444 37.002C35.0394 37.002 31.4688 40.5678 31.4688 44.9665C31.4688 49.3651 35.0394 52.931 39.444 52.931Z" fill="#10218B"/>
<path d="M112.503 112V70.9277H38.3828V92.6739C45.9408 100.222 50.1772 104.452 57.7352 112H112.503Z" fill="#BFBFBF"/>
<path d="M38.3828 92.7217H57.6871V112" fill="#666666"/>
<path d="M116.937 70.9276H33.9588C33.012 70.9276 32.2578 70.1744 32.2578 69.2289C32.2578 68.2835 33.012 67.5303 33.9588 67.5303H116.937C117.883 67.5303 118.637 68.2835 118.637 69.2289C118.637 70.1744 117.883 70.9276 116.937 70.9276Z" fill="#10218B"/>
<path d="M96.0268 90.6381C99.5452 90.6381 102.397 87.7897 102.397 84.2761C102.397 80.7624 99.5452 77.9141 96.0268 77.9141C92.5084 77.9141 89.6562 80.7624 89.6562 84.2761C89.6562 87.7897 92.5084 90.6381 96.0268 90.6381Z" fill="#10218B"/>
<path d="M94.3062 96.5514L86.6198 104.308L72.6912 87.3369L57.6875 104.308V112H81.7416H91.514H106.71L94.3062 96.5514Z" fill="#10218B"/>
<path d="M196.137 21.0258C204.481 21.0258 210.772 26.5384 212.376 34.9517H215.056V20.6412H226.241V57.1465H215.056V44.5187H212.296C210.451 52.5473 204.321 57.8356 196.121 57.8356C186.236 57.8356 179.336 50.2557 179.336 39.4708C179.336 28.6858 186.236 21.0258 196.121 21.0258H196.137ZM196.137 48.1083C199.667 48.1083 201.882 44.743 201.882 39.4547C201.882 34.1664 199.651 30.737 196.137 30.737C192.623 30.737 190.232 34.1023 190.232 39.4547C190.232 44.8071 192.526 48.1083 196.137 48.1083ZM193.826 59.967H205.701V65.095H228.76V59.967H240.554V88.3636H193.81V59.967H193.826ZM228.776 78.8767V74.2775H205.717V78.8767H228.776ZM240.57 19.4072V57.5952H229.225V19.4072H240.57Z" fill="#10218B"/>
<path d="M245.094 53.3162H270.464V44.5985H282.499V53.3162H308.174V62.7229H245.11V53.3162H245.094ZM267.318 29.7431C270.383 27.756 270.849 25.9131 270.849 24.6151V19.3428H282.418V24.6151C282.418 25.9131 282.884 27.756 285.949 29.7431L302.958 40.6883L297.133 49.7105L280.124 38.7653C278.744 37.8519 277.588 36.9224 276.674 35.8487C275.679 36.9224 274.523 37.8358 273.143 38.7653L256.134 49.7105L250.309 40.6883L267.318 29.7431ZM265.938 66.2485V78.4917H300.262V88.0588H253.984V66.2485H265.938Z" fill="#10218B"/>
<path d="M389.017 69.3895V79.1809H325.953V69.3895H389.017ZM332.163 53.3964H340.668V34.3424H332.163V24.7754H382.582V34.3424H373.997V53.3964H382.582V62.8833H332.163V53.3964ZM362.042 53.3964V34.3424H352.687V53.3964H362.042Z" fill="#10218B"/>
<path d="M394.313 37.4676H413.938V33.4132H394.313V23.686H425.957V46.4097H406.332V50.464H428.252V60.2554H394.297V37.4516L394.313 37.4676ZM404.278 66.329H416.313V78.4921H450.958V87.979H404.294V66.3129L404.278 66.329ZM437.302 19.4072H449.337V69.1494H437.302V19.4072Z" fill="#10218B"/>
<path d="M481.452 56.0726V52.2425H465.052V20.8652H510.721V29.8233H476.927V32.195H510.721V40.8486H476.927V43.3005H510.721V52.2586H493.487V56.0886H519.001V65.4313H455.938V56.0886H481.452V56.0726ZM464.523 68.46H510.801V89.0524H498.846V77.8027H464.523V68.46Z" fill="#10218B"/>
</svg>
