<svg width="91" height="139" viewBox="0 0 91 139" fill="none" xmlns="http://www.w3.org/2000/svg">
<rect x="16.7734" y="54.0352" width="55.9767" height="35.985" rx="4" fill="#FFCD00"/>
<rect x="0.09375" y="72.0283" width="89.9626" height="55.9767" rx="10" fill="white"/>
<rect x="17.7734" y="103.015" width="55.9767" height="35.985" rx="4" fill="#FFCD00"/>
<g clip-path="url(#clip0_103_201)">
<path d="M65.2663 0.00017406C66.5424 -0.103673 67.337 0.966755 68.0352 1.85345C75.2105 10.9521 75.7 24.8437 69.0706 34.3657C67.337 36.8501 65.3465 39.646 62.6498 36.1471C61.1088 34.15 63.5728 32.3047 64.6322 30.6512C69.3756 23.246 69.0866 13.5882 64.255 6.31091C63.2999 4.87302 61.4941 3.523 62.8184 1.66972C63.316 0.982731 64.3754 0.0720685 65.2583 0.00017406H65.2663Z" fill="#FFCD00"/>
<path d="M25.0545 0.0162792C26.3627 -0.0236621 28.1445 1.7737 28.1365 3.07579C28.1365 4.17817 26.6998 5.5841 26.0899 6.52672C20.7044 14.8265 21.5151 24.3326 26.8122 32.3847C27.671 33.6948 28.915 34.6135 27.6549 36.323C26.764 37.5372 25.2552 38.5597 23.7944 37.6011C22.3337 36.6425 19.958 32.225 19.2277 30.5954C15.1023 21.321 16.1377 9.738 22.5745 1.74175C23.2567 0.894989 23.8346 0.0482323 25.0545 0.0162792Z" fill="#FFCD00"/>
<path d="M58.8057 29.1094C57.3048 30.5074 55.507 29.429 54.5118 28.039C53.2838 26.3375 54.6723 25.299 55.3946 23.9011C56.9597 20.8815 57.064 17.5025 55.6675 14.403C54.8328 12.5498 53.0832 11.4074 54.7445 9.37042C58.9903 4.15408 62.1686 14.9303 62.3692 17.8939C62.5779 21.0972 61.2456 26.8408 58.8137 29.1094H58.8057Z" fill="#FFCD00"/>
<path d="M31.6918 29.1094C31.1621 28.6141 30.2953 27.1523 29.9501 26.4733C27.6868 22.0717 27.5584 16.9193 29.5248 12.39C30.6243 9.8497 32.9117 5.79964 35.7609 9.3704C37.2618 11.2476 36.082 12.0145 35.2312 13.6281C33.5939 16.7356 33.3532 20.3543 34.838 23.5895C35.5764 25.1952 37.2939 26.3535 35.8171 28.2147C34.7738 29.5328 33.1605 30.4674 31.6998 29.1094H31.6918Z" fill="#FFCD00"/>
<path d="M44.2772 13.5483C49.3256 12.8693 52.7687 18.3892 49.6306 22.3754C46.059 26.9127 38.8758 23.7653 39.7907 17.9419C40.1118 15.8889 42.1985 13.8279 44.2853 13.5483H44.2772Z" fill="#FFCD00"/>
</g>
<defs>
<clipPath id="clip0_103_201">
<rect width="56.9763" height="37.9842" fill="white" transform="translate(16.7734)"/>
</clipPath>
</defs>
</svg>
