<svg width="116" height="116" viewBox="0 0 116 116" fill="none" xmlns="http://www.w3.org/2000/svg">
<g clip-path="url(#clip0_103_188)">
<path fill-rule="evenodd" clip-rule="evenodd" d="M20.8623 104.108H0V83.2455C0 71.829 9.37786 62.4512 20.8623 62.4512C21.8137 62.4512 22.833 62.5191 23.7844 62.655C24.1922 64.3539 25.0756 65.9169 26.3667 67.276L36.8319 77.7412C38.123 79.0323 39.754 79.9157 41.4528 80.2555C41.5888 81.2748 41.6567 82.2262 41.6567 83.2455C41.6567 94.73 32.2789 104.108 20.8623 104.108Z" fill="white"/>
<path fill-rule="evenodd" clip-rule="evenodd" d="M28.8809 69.7912C30.3759 68.2962 32.8223 68.2962 34.3174 69.7912C35.8124 71.2862 35.8124 73.7326 34.3174 75.2276L23.7843 85.7607C22.2892 87.2557 19.8428 87.2557 18.3478 85.7607C16.8528 84.2657 16.8528 81.8193 18.3478 80.3243L28.8809 69.7912Z" fill="#FFCD00"/>
<path fill-rule="evenodd" clip-rule="evenodd" d="M95.4776 9.37833V9.44629C102.069 16.038 102.069 26.8429 95.4776 33.5025L47.6369 81.3432C43.8994 85.0807 37.7834 85.0807 33.9779 81.3432L23.5807 70.878C19.7752 67.1405 19.7752 61.0245 23.5807 57.219L71.3534 9.37833C78.013 2.78665 88.818 2.78665 95.4776 9.37833Z" fill="#0C4DA2"/>
<path fill-rule="evenodd" clip-rule="evenodd" d="M46.686 111.516C44.5114 111.516 42.8125 109.817 42.8125 107.71C42.8125 105.604 44.5114 103.837 46.686 103.837H112.127C114.234 103.837 116.001 105.604 116.001 107.71C116.001 109.817 114.234 111.516 112.127 111.516H46.686Z" fill="white"/>
</g>
<defs>
<clipPath id="clip0_103_188">
<rect width="116" height="116" fill="white"/>
</clipPath>
</defs>
</svg>
