<svg width="69" height="130" viewBox="0 0 69 130" fill="none" xmlns="http://www.w3.org/2000/svg">
<rect width="69" height="130" rx="8" fill="white"/>
<path d="M5.22266 27.9434C5.22266 25.7342 7.01352 23.9434 9.22266 23.9434H46.3138C48.523 23.9434 50.3138 25.7342 50.3138 27.9434V35.5518C50.3138 37.761 48.523 39.5518 46.3138 39.5518H9.22265C7.01352 39.5518 5.22266 37.761 5.22266 35.5518V27.9434Z" fill="#0C4DA2"/>
<path d="M27.6992 49.8877C27.6992 47.6786 29.4901 45.8877 31.6992 45.8877H60.9862C63.1953 45.8877 64.9862 47.6786 64.9862 49.8877V63.5662C64.9862 65.7753 63.1953 67.5661 60.9862 67.5661H31.6992C29.4901 67.5661 27.6992 65.7753 27.6992 63.5661V49.8877Z" fill="#FFCD00"/>
<path d="M28 75C28 72.7909 29.7909 71 32 71H61C63.2091 71 65 72.7909 65 75V78C65 80.2091 63.2091 82 61 82H32C29.7909 82 28 80.2091 28 78V75Z" fill="#FFCD00"/>
<rect x="25" y="7.7334" width="18.2099" height="5.20283" rx="2.60141" fill="#0C4DA2"/>
</svg>
